<?xml version="1.0" encoding="UTF-8"?>
<svg xmlns="http://www.w3.org/2000/svg" xmlns:xlink="http://www.w3.org/1999/xlink" version="1.1" viewBox="0 0 792 180">
  <defs>
    <style>
      .cls-1 {
        fill: none;
      }

      .cls-2 {
        fill: #00b259;
      }

      .cls-3 {
        stroke: #010101;
        stroke-miterlimit: 10;
        stroke-width: .5px;
      }

      .cls-3, .cls-4 {
        fill: #010101;
      }

      .cls-5 {
        fill: #0778ae;
      }

      .cls-6 {
        fill: #0078ae;
      }

      .cls-7 {
        clip-path: url(#clippath);
      }
    </style>
    <clipPath id="clippath">
      <rect class="cls-1" x="41.9" y="30.1" width="261.2" height="113"/>
    </clipPath>
  </defs>
  <!-- Generator: Adobe Illustrator 28.7.1, SVG Export Plug-In . SVG Version: 1.2.0 Build 142)  -->
  <g>
    <g id="Layer_1">
      <g>
        <g>
          <path class="cls-5" d="M212.8,119.9c-.8,0-1.3-.1-1.6-.3.3.2.8.3,1.6.3h0Z"/>
          <path class="cls-5" d="M216,118.6c-.2.3-.5.5-.8.7-.3.2-.7.3-1.1.4.4,0,.8-.2,1.1-.4.3-.2.6-.4.8-.7h0Z"/>
          <path class="cls-5" d="M219.6,103.1l-1.2,7.9c0,.4-.1.7-.2,1.1,0-.3.1-.7.2-1.1l1.2-7.9h0Z"/>
          <path class="cls-5" d="M218.8,58.7c0-.4.2-.8.3-1.1.2-.9.6-1.9,1.2-2.9-.5,1.1-.9,2-1.2,2.9,0,.3-.2.7-.3,1.1h0Z"/>
          <path class="cls-5" d="M225.1,52.4c.3,0,.5.1.7.2,0,0,.1,0,.2,0,0,0,0,0-.2,0-.2,0-.4-.1-.7-.2h0Z"/>
          <path class="cls-5" d="M220.9,53.6c.3-.3.5-.5.9-.7.3-.2.7-.3,1.1-.4-.4,0-.8.2-1.1.4-.3.2-.6.4-.9.7h0Z"/>
          <path class="cls-5" d="M222.9,52.4c.4,0,.9-.1,1.3-.1h0c-.5,0-.9,0-1.3.1h0Z"/>
          <path class="cls-5" d="M230.2,137.8c-1.2.6-2.5,1.2-3.9,1.7,1.4-.5,2.7-1.1,3.9-1.7h0Z"/>
          <path class="cls-5" d="M226.6,53.7c0,.1.1.3.2.4,0,0,0,0,0,.2,0,0,0-.1,0-.2,0-.1-.1-.3-.2-.4h0Z"/>
          <path class="cls-5" d="M234.9,30.7c.4,0,.8.1,1.2.2-.4,0-.8-.1-1.2-.2h0Z"/>
          <path class="cls-5" d="M210.1,142c3.7,0,7.1-.3,10.2-.9-3.1.6-6.6.9-10.2.9h0Z"/>
          <path class="cls-5" d="M217.5,30.9c1.6-.3,3.2-.5,4.9-.6-1.7.1-3.3.3-4.9.6h0Z"/>
          <path class="cls-5" d="M210.4,111.8c0,0,0,.2,0,.2,0,0,0-.2,0-.2l7.9-50.6c0-.1,0-.2,0-.3,0,.1,0,.2,0,.3l-7.9,50.6h0Z"/>
          <polygon class="cls-5" points="293.5 32.1 293.5 32.1 286.7 75.3 293.5 32.1 293.5 32.1"/>
          <path class="cls-5" d="M239.3,130.7c.6-.7,1.1-1.3,1.6-2.1.5-.7,1-1.4,1.4-2.1-.4.7-.9,1.4-1.4,2.1-.5.7-1,1.4-1.6,2.1h0Z"/>
          <polygon class="cls-5" points="248.6 127.3 246.4 140.9 246.4 140.9 248.6 127.3 248.6 127.3 248.6 127.3"/>
          <polygon class="cls-5" points="261.2 46.8 261.2 46.8 263.6 32.1 261.2 46.8 261.2 46.8"/>
          <path class="cls-5" d="M226.8,56.9c0,.4,0,.7,0,1,0,.1,0,.3,0,.5,0-.2,0-.4,0-.5,0-.3,0-.7,0-1h0Z"/>
          <polygon class="cls-5" points="256.2 79 254.6 89.3 254.6 89.3 256.2 79 256.2 79 256.2 79"/>
          <path class="cls-5" d="M248,35.5c-1.6-1.2-3.5-2.2-5.7-3.1-.5-.2-1-.3-1.6-.5.5.2,1.1.3,1.6.5,2.2.8,4.1,1.8,5.7,3.1h0Z"/>
          <path class="cls-5" d="M185.8,133.4c1.5,1.8,3.3,3.4,5.5,4.7-2.2-1.3-4-2.8-5.5-4.7h0Z"/>
          <path class="cls-5" d="M198.7,40.2h0c-1.4,1.5-2.7,3.1-3.8,4.9h0c1.2-1.7,2.4-3.4,3.8-4.9h0Z"/>
          <g class="cls-7">
            <path class="cls-5" d="M220.3,141.1c1-.2,2.1-.4,3.1-.7,1-.3,2-.6,2.9-.9-.9.3-1.9.6-2.9.9-1,.3-2,.5-3.1.7h0Z"/>
            <path class="cls-6" d="M174.7,120.3c-.3-2.5-.3-5.3-.2-8.3h0s0,0,0,0c.1-2.7.5-5.5.9-8.4l5.9-37.4c1-6.3,2.5-11.9,4.5-16.6,2.1-5,5-9.5,8.6-13.3.8-.8,1.6-1.5,2.4-2.3l.4-2h-34.4l-4,22.4h7.2l-3.4,18.6h-32.9l3.3-18.6h7.1l4-22.4h-40.2l-4,22.4h6.3l-8.2,47.2c-2,11.1-8.2,16.2-16.8,16.2s-11.6-3.7-11.6-11.4.2-3.1.5-4.7l8.2-47.2h6.3l4-22.4h-40.4l-4,22.4h7.4l-8.9,50.1c-.6,3.2-.9,6.1-.9,8.9,0,18.3,11.6,29.9,34.8,29.9s11.4-.8,16.4-2.3h30l4-22.4h-7.3c2.1-4.3,3.7-9,4.6-14l1.1-6.1h32.9l-3.5,20.1h-7.2l-4,22.4h39.4l.3-1.6c-1.4-1.4-2.7-2.9-3.7-4.6-2.6-4.1-4.2-9-4.8-14.4h0Z"/>
          </g>
          <path class="cls-2" d="M220.8,95.2l-1.2,7.9-1.2,7.9c0,.4-.1.7-.2,1.1-.1.7-.2,1.3-.3,1.8,0,.3-.1.5-.2.7-.1.4-.2.9-.4,1.4-.2.5-.4,1-.6,1.5-.2.4-.4.7-.6,1-.2.3-.5.5-.8.7-.3.2-.7.3-1.1.4-.4,0-.8.1-1.3.1h0c-.8,0-1.3-.1-1.6-.3-.3-.2-.5-.4-.6-.5-.1-.2-.2-.3-.3-.5,0-.2-.2-.4-.2-.6-.1-.4-.2-.9-.1-1.4,0-1.5.2-3,.4-4.6,0,0,0-.2,0-.2l7.9-50.6c0-.1,0-.2,0-.3.1-.8.3-1.5.4-2.1,0-.4.2-.8.3-1.1.2-.9.6-1.9,1.2-2.9.2-.4.4-.8.7-1,.3-.3.5-.5.9-.7.3-.2.7-.3,1.1-.4.4,0,.9-.1,1.3-.1h0c.3,0,.6,0,.9,0,.3,0,.5.1.7.2,0,0,.1,0,.2,0,.2,0,.2.2.3.2.2.3.3.6.4.9,0,.1.1.3.2.4,0,0,0,0,0,.2,0,.2,0,.6,0,1.3,0,.5,0,.9,0,1.3,0,.4,0,.7,0,1,0,.1,0,.3,0,.5,0,.5-.1,1.1-.3,1.8l-2.2,12.9h26.9l4.1-26.1c-.7-2.6-1.7-5.1-3.2-7.3-1.1-1.6-2.4-3-4.1-4.2-1.6-1.2-3.5-2.2-5.7-3.1-.5-.2-1-.3-1.6-.5-1.4-.5-3-.8-4.7-1.1-.4,0-.8-.1-1.2-.2-2.5-.4-5.1-.5-8-.5s-3,0-4.5.2c-1.7.1-3.3.3-4.9.6-2.5.4-4.8,1-6.9,1.7-4.7,1.7-8.8,4.2-11.9,7.6-1.4,1.5-2.7,3.1-3.8,4.9h0c-1.4,2.1-2.6,4.3-3.6,6.7-1.8,4.3-3.2,9.4-4.1,15.2l-5.9,37.4c-.4,2.7-.7,5.3-.9,7.8,0,2.7,0,5.2.2,7.5.5,4.5,1.8,8.5,3.9,11.9.4.6.9,1.2,1.4,1.8,1.5,1.8,3.3,3.4,5.5,4.7,1,.6,2,1,3.1,1.5,2.1.8,4.5,1.5,7.1,1.9,1.3.2,2.7.4,4.1.5,1.4.1,2.9.2,4.5.2,3.7,0,7.1-.3,10.2-.9,1-.2,2.1-.4,3.1-.7,1-.3,2-.6,2.9-.9,1.4-.5,2.7-1.1,3.9-1.7,1.2-.6,2.4-1.3,3.4-2,1.4-1,2.7-2.1,3.9-3.3.6-.6,1.2-1.2,1.7-1.9.6-.7,1.1-1.3,1.6-2.1.5-.7,1-1.4,1.4-2.1.2-.4.4-.7.6-1.1l4.7-30.2h-26.9Z"/>
          <polygon class="cls-2" points="279.9 118.6 279.9 118.6 286.7 75.3 293.5 32.1 263.6 32.1 261.2 46.8 256.2 79 254.6 89.3 248.6 127.3 246.4 140.9 299.6 140.9 303.1 118.6 279.9 118.6 279.9 118.6"/>
        </g>
        <g>
          <path class="cls-3" d="M338.4,65.2c0,3,.6,4.4,1.6,5.6,1.3,1.5,3.2,2.2,5.1,2.2s4.9-1.1,6.3-3.5c.8-1.5,1.3-3.6,1.3-6v-20.7c0-3.3-.8-4.1-2.3-4.2-1.1-.1-1.6-.2-1.6-.9s.4-.9,1.1-.9,1.6.2,3.5.2,3.2-.2,3.9-.2.8.2.8.9-.8.7-1.9,1c-1.2.3-1.6.8-1.6,3.7v20.4c0,3.3-.6,5.9-1.9,7.9-1.9,2.9-4.9,4-8.7,4s-5.7-.6-7.9-2.3c-1.9-1.5-3-3.8-3-7.1v-24.4c0-1.8-.2-2.2-1.3-2.3-1.3-.2-1.7-.4-1.7-1s.5-.7,1.2-.7c1.6,0,3.1.2,4.7.2,2.5,0,3.8-.2,5-.2s1.6,0,1.6.8-.6.8-1.9.9c-1.3.2-2.3.4-2.3,3.2v23.5Z"/>
          <path class="cls-3" d="M362.4,53.1c0-1.7-.3-1.9-1.6-2.1-1.1-.1-1.3-.2-1.3-.7s.5-.6,1.9-1.1c2.2-.8,3.5-1.6,4.3-2.2.5-.4.8-.6,1.1-.6s.4.5.4,1v2.3c0,.9.1,1,.3,1,.5,0,1.4-.9,2.7-1.9,1.3-.9,3-2,5.2-2s3.6.6,4.8,1.8,1.9,2.9,2,5.2v16.1c0,1.9.7,2.3,1.8,2.5,1.1.1,1.5.3,1.5.8s-.4.7-1.1.7-1.7-.2-4.6-.2-3.5.2-4.3.2-1-.2-1-.8.4-.6.9-.7c1.3-.3,1.9-.6,1.9-2v-16c0-1.3-.4-2.5-1-3.2-.8-1-1.9-1.5-3.3-1.5s-2.8.5-3.8,1.4-1.7,2.1-1.7,3.3v15.9c0,1.2.4,1.6,1.6,1.9,1.5.3,1.8.3,1.8.8s-.4.7-.9.7-1.2-.2-5-.2-3.6.2-4.4.2-1.1-.3-1.1-.8.4-.8.9-.9c1.8-.2,2.2-.8,2.2-2.9v-16.3Z"/>
          <path class="cls-3" d="M390,53.1c0-1.5-.4-1.9-2.2-2.3-.6-.1-.8-.4-.8-.7s.5-.7,1.9-1.2c1.9-.6,3.3-1.3,4.5-1.9.5-.4.9-.6,1.1-.6.4,0,.5.2.5.9v22c0,1.8,0,2.5,2,2.9,1.1.3,1.4.4,1.4.9s-.2.7-1,.7c-1.1,0-2.2-.2-4.9-.2s-3.9.2-4.9.2-.9-.2-.9-.7.2-.8,1.1-.9c2-.4,2.2-.6,2.2-2.7v-16.5ZM392.5,43c-1.5,0-2.8-1.2-2.8-3.5s1.3-3.5,2.8-3.5,2.9,1.2,2.9,3.5-1.3,3.5-2.9,3.5h0Z"/>
          <path class="cls-3" d="M409.3,47.9c0,.4-.5.5-1.3.8-1.3.3-1.6.6-1.6,1.2s.1.7.5,2.3c.8,3,1.7,6.1,2.6,9.4,1,3.8,1.2,4,1.5,4s.6-.2,1.9-4.5c.8-2.8,1.6-5.3,2.4-7.9.5-1.6.7-2.6.7-3,0-1.2-.8-1.5-1.6-1.5-.8-.1-1.6-.1-1.6-.9s.4-.8,1.2-.8,1.9.2,2.9.2,2.1-.2,2.9-.2,1.1.1,1.1.6-.4.8-1.2,1c-1.3.4-1.6,1.8-2.5,4.3-2.2,6.2-4.1,12.5-6.1,18.8-.5,1.4-.5,2.5-1.9,2.5s-1.4-1.5-1.8-2.6c-1.9-6.4-4.2-14.2-5.4-18.4-1.1-3.6-1.2-4.4-2.7-4.7s-1.1-.3-1.1-.8.6-.8,1.3-.8,2.6.2,4.4.2,2.7-.2,3.9-.2,1.3.2,1.3.8h0Z"/>
          <path class="cls-3" d="M427.2,59.4c-1.1,0-1.5.4-1.5,1.3,0,6,2.6,10.7,6.6,10.7s4.3-1.3,5.1-3.3c.5-1.1.6-1.8,1.1-1.8s.6.2.6.8-.3,1.9-.8,2.9c-1.2,2.5-3.9,4.4-7.2,4.4-6.6,0-10.6-5.6-10.6-13.4s4.9-14.6,10.5-14.6,8.1,3.5,8.1,9.4,0,3.5-1.7,3.5h-10.2ZM425.9,56.2c0,1.1.2,1.4,2.2,1.4s2.1-.1,2.9-.2c1.8-.2,2.9-.7,3.2-1.2.5-.5.6-1.1.6-2.5,0-3.5-1.6-5.6-3.9-5.6s-5.1,3.9-5.1,8h0Z"/>
          <path class="cls-3" d="M444.6,53.7c0-1.9-.6-2.3-2.1-2.3-.5,0-.8-.2-.8-.6s.4-.8,1.2-1c1.2-.4,2.6-.9,4-2.1.8-.8,1.1-1.2,1.6-1.2s.5.3.5.9c0,.8,0,1.8,0,2.9s0,1.3.2,1.3c.5,0,.8-1.2,1.7-2.6.8-1.2,2-2.6,4.1-2.6s3.5,1.8,3.5,4.4-.8,3.8-2.8,3.8-2.1-1.1-2.3-2.3c-.1-.9-.2-1.9-.9-1.9-1.1,0-1.8,1.1-2.3,2.5-.5,1.4-.8,2.8-.8,3.8v12.1c0,2.6.2,3.3,2.1,3.6,1.5.3,2.1.4,2.1.9s-.4.7-1.4.7-1.5-.2-5.2-.2-3.8.2-4.5.2-1.2-.2-1.2-.7.5-.7,1.5-.9c1.4-.2,1.7-.5,1.7-2.8v-15.9Z"/>
          <path class="cls-3" d="M460.8,53.9c0-5.2,4.4-7.4,8.9-7.4s3.6.3,4.7.9c.2.1.3.5.4,1.4,0,.5,0,1.2,0,2.2v1.5c0,1-.2,1.5-.7,1.5-.7,0-.8-1-1.6-3-.6-1.6-1.5-2.8-3.3-2.8s-3.9,1.6-3.9,3.6,2.8,4.3,5.5,6.1c2.8,1.8,5.4,3.9,5.4,8s-4.2,8.7-9.6,8.7-2.9-.2-3.9-.5c-.5-.1-.9-.2-1.2-.4-.4-.2-.6-.5-.7-1.8,0-.7,0-1.8,0-3.3,0-2.7.2-3.3.7-3.3s.8.8,1.7,3.3c.9,2.4,2.3,4.3,4.4,4.3s4-1.8,4-4.3-2.7-5.1-5.4-6.9c-2.8-1.7-5.4-3.6-5.4-7.8h0Z"/>
          <path class="cls-3" d="M481.4,53.1c0-1.5-.4-1.9-2.2-2.3-.6-.1-.8-.4-.8-.7s.5-.7,1.9-1.2c1.9-.6,3.3-1.3,4.5-1.9.5-.4.9-.6,1.1-.6.4,0,.5.2.5.9v22c0,1.8,0,2.5,2,2.9,1.1.3,1.4.4,1.4.9s-.2.7-1,.7c-1.1,0-2.2-.2-4.9-.2s-3.9.2-4.9.2-.9-.2-.9-.7.2-.8,1.1-.9c2-.4,2.2-.6,2.2-2.7v-16.5ZM483.9,43c-1.5,0-2.8-1.2-2.8-3.5s1.3-3.5,2.8-3.5,2.9,1.2,2.9,3.5-1.3,3.5-2.9,3.5h0Z"/>
          <path class="cls-3" d="M499.2,68.7c0,2.2.7,2.6,1.8,2.6s1.7-.8,2.2-1.6.8-1.5,1.3-1.5.6.2.6.6c0,.8-1.2,5.6-5.9,5.6s-2.8-.4-3.6-1.3c-.9-.9-1.3-2.3-1.3-4.2v-18.8c0-.5-.3-.8-.6-.9-.4,0-.9,0-1.3,0-.5,0-.9-.1-.9-.8s.4-.8,1.1-1.5c1.6-1.5,3-3,5-6.6.6-1.1.7-1.4,1.1-1.4s.6.1.6,1.3v5.7c0,.9.3,1.3,1.2,1.3h2.6c1,0,1.3.2,1.3,1s-.2,1.2-1.4,1.2h-2.8c-.7,0-.9.2-.9,1.2v18Z"/>
          <path class="cls-3" d="M509.9,83.2c0-1.4.8-2.2,2.1-2.3,1-.2,1.9-.1,2.5-.6.4-.2,1-1.4,1.5-2.8.5-1.3.9-2.9.9-3.6,0-1.3-.2-2-1.1-4.6-1.6-5-3.5-10.7-5.8-17.4-1-2.9-1.6-3.2-2.2-3.3-.9-.1-1.2-.2-1.2-.9s.4-.6,1-.6c1.5,0,3.1.2,4.7.2s3.2-.2,3.8-.2,1.1.2,1.1.8-.6.5-1.6.8c-.9.2-1.1.7-1.1,1.3s.4,1.8,1.1,4.5c1.1,3.7,3.4,11.3,3.9,11.3s3-8.7,3.9-11.7c.8-2.9.9-3.4.9-4,0-.9-.6-1.2-2-1.3-.5-.1-1.1-.1-1.1-.7s.4-.9.9-.9,1.8.2,3.5.2,1.5-.2,2.5-.2.9.2.9.8-.4.6-1,.7c-.8.2-1.5,1.2-2.3,4-2.9,8.5-5.4,15.8-7.5,22.9-.9,3.2-1.5,5.4-1.9,7.2-.8,3.1-1.3,3.9-3.4,3.9s-2.9-.8-2.9-3.2h0Z"/>
          <path class="cls-3" d="M547.7,74.5c-6.4,0-10.7-6.4-10.7-14s4.3-14,10.8-14,10.8,6.4,10.8,14-4.3,14-10.8,14h0ZM548,72.8c3.7,0,5.3-6,5.3-11.8s-1.8-12.9-5.6-12.9-5.4,6-5.4,11.8,1.9,12.9,5.6,12.9h0Z"/>
          <path class="cls-3" d="M568.2,68.9c0,2.5.6,3,2.6,3.4.9.2,1.6.3,1.6.9s-.3.7-1.2.7c-1.3,0-3.2-.2-5.3-.2s-3.6.2-4.5.2-1.5-.2-1.5-.7.3-.8,1.2-.9c1.8-.2,2.3-.8,2.3-3.2v-18.5c0-.9-.6-1.1-1.4-1.2-.6-.1-1.3-.2-1.3-.9s.6-.9,1.4-1.3c.7-.4,1.3-1,1.4-2.4.1-4.2.9-7.3,2.4-9.4,1.5-2.1,3.6-3.1,6-3.1s4.6.9,4.6,3.2-.2,1.8-.4,2.8c-.2,1.1-.8,1.9-1.5,1.9s-1.5-1.5-1.9-2.9c-.5-1.6-.9-3.3-2.1-3.3s-2.4,2.2-2.4,8.9,0,2.3,0,3.3c0,.9.3,1.1.8,1.1h3.9c.7,0,.8.1.8,1.1s0,1.1-.8,1.1h-3.1c-1.3,0-1.6.4-1.6,1.5v17.9Z"/>
          <path class="cls-3" d="M595.8,55c-.4,0-.5.2-.5.8v14c0,1.6.6,2.1,1.5,2.3.8.2,1.6.4,1.6,1.1s-.2.8-1.2.8-1.6-.2-4.6-.2-4,.2-5.2.2-1-.2-1-1,.3-.7.9-.8c2.2-.4,2.4-.9,2.4-2.6v-29c0-1.6-.5-1.8-1.2-2.1-1.6-.5-2-.2-2-.9s.2-.8,1.2-.8,3,.2,4.7.2,3.3-.2,4.5-.2,1.3.2,1.3.8-.6.8-1.7,1.1c-.8.1-1.4.5-1.4,1.6v12.1c0,.5.1.7.6.7h10.4c.5,0,.5-.2.5-.8v-11.6c0-1.5-.5-1.9-1.5-2.2-1.1-.2-1.8-.2-1.8-.8s.5-.9,1.3-.9c1.2,0,2.4.2,4.7.2s3.9-.2,5-.2,1,.2,1,.7c0,.7-.8,1-2.1,1.2-.8.1-1.3.6-1.3,1.3v29.8c0,1.3.4,2.1,1.1,2.3,1.1.5,2.2.4,2.2,1.2s-.2.7-1.1.7-2.5-.2-4.8-.2-3.3.2-4.2.2-1.6-.2-1.6-.9.4-.6,1.6-.9c1.2-.2,1.5-.8,1.5-2.3v-14c0-.5-.1-.7-.5-.7h-10.5Z"/>
          <path class="cls-3" d="M628.1,74.5c-6.4,0-10.7-6.4-10.7-14s4.3-14,10.8-14,10.8,6.4,10.8,14-4.3,14-10.8,14h0ZM628.3,72.8c3.7,0,5.3-6,5.3-11.8s-1.8-12.9-5.6-12.9-5.4,6-5.4,11.8,1.9,12.9,5.6,12.9h0Z"/>
          <path class="cls-3" d="M648.8,66.8c0,2.9,1.7,4.4,4.3,4.4s3.2-.7,4.3-1.9c.7-.8,1.2-1.8,1.2-2.9v-15.4c0-1.6-.2-2.1-1.5-2.3-1.3-.2-1.8-.1-1.8-.9s.4-.8,1.2-.8,1.8.1,2.8.1,2.1-.1,3.2-.1,1,.2,1,1.3v19.6c0,1.9.4,2.5,1.5,2.6,1.1.1,1.4.3,1.4.8,0,.5-.4.6-1.6,1.1-2.5.9-4,1.5-4.9,1.9-.4.1-.5.2-.8.2s-.3-.2-.3-.7v-2.7c0-.6-.2-.8-.4-.8s-.5.2-.8.5c-1.2,1.1-3.3,3.3-6.9,3.3s-3.6-.4-4.8-1.5c-1.2-1.1-2.1-2.6-2.1-5v-17.2c0-1.2-.5-1.6-1.6-1.7-1.1-.1-1.4-.4-1.4-.9s.4-.9,1.1-.9c1.1,0,2.2.1,3.3.1s1.9-.1,2.6-.1.9.6.9,2.1v17.7Z"/>
          <path class="cls-3" d="M668.3,53.9c0-5.2,4.4-7.4,8.9-7.4s3.6.3,4.7.9c.2.1.3.5.4,1.4,0,.5,0,1.2,0,2.2v1.5c0,1-.2,1.5-.7,1.5-.7,0-.8-1-1.6-3-.6-1.6-1.5-2.8-3.3-2.8s-3.9,1.6-3.9,3.6,2.8,4.3,5.5,6.1c2.8,1.8,5.4,3.9,5.4,8s-4.2,8.7-9.6,8.7-2.9-.2-3.9-.5c-.5-.1-.9-.2-1.2-.4-.4-.2-.6-.5-.7-1.8,0-.7,0-1.8,0-3.3,0-2.7.2-3.3.7-3.3s.8.8,1.7,3.3c.9,2.4,2.3,4.3,4.4,4.3s4-1.8,4-4.3-2.7-5.1-5.4-6.9c-2.8-1.7-5.4-3.6-5.4-7.8h0Z"/>
          <path class="cls-3" d="M693.3,68.7c0,2.2.7,2.6,1.8,2.6s1.7-.8,2.2-1.6.8-1.5,1.3-1.5.6.2.6.6c0,.8-1.2,5.6-5.9,5.6s-2.8-.4-3.6-1.3c-.9-.9-1.3-2.3-1.3-4.2v-18.8c0-.5-.3-.8-.6-.9-.4,0-.9,0-1.3,0-.5,0-.9-.1-.9-.8s.4-.8,1.1-1.5c1.6-1.5,3-3,5-6.6.6-1.1.7-1.4,1.1-1.4s.6.1.6,1.3v5.7c0,.9.3,1.3,1.2,1.3h2.6c1,0,1.3.2,1.3,1s-.2,1.2-1.4,1.2h-2.8c-.7,0-.9.2-.9,1.2v18Z"/>
          <path class="cls-3" d="M710.6,74.5c-6.4,0-10.7-6.4-10.7-14s4.3-14,10.8-14,10.8,6.4,10.8,14-4.3,14-10.8,14h0ZM710.9,72.8c3.7,0,5.3-6,5.3-11.8s-1.8-12.9-5.6-12.9-5.4,6-5.4,11.8,1.9,12.9,5.6,12.9h0Z"/>
          <path class="cls-3" d="M726.4,53.1c0-1.7-.3-1.9-1.6-2.1-1.1-.1-1.3-.2-1.3-.7s.5-.6,1.9-1.1c2.2-.8,3.5-1.6,4.3-2.2.5-.4.8-.6,1.1-.6s.4.5.4,1v2.3c0,.9.1,1,.3,1,.5,0,1.4-.9,2.7-1.9,1.3-.9,3-2,5.2-2s3.6.6,4.8,1.8,1.9,2.9,2,5.2v16.1c0,1.9.7,2.3,1.8,2.5,1.1.1,1.5.3,1.5.8s-.4.7-1.1.7-1.7-.2-4.6-.2-3.5.2-4.3.2-1-.2-1-.8.4-.6.9-.7c1.3-.3,1.9-.6,1.9-2v-16c0-1.3-.4-2.5-1-3.2-.8-1-1.9-1.5-3.3-1.5s-2.8.5-3.8,1.4-1.7,2.1-1.7,3.3v15.9c0,1.2.4,1.6,1.6,1.9,1.5.3,1.8.3,1.8.8s-.4.7-.9.7-1.2-.2-5-.2-3.6.2-4.4.2-1.1-.3-1.1-.8.4-.8.9-.9c1.8-.2,2.2-.8,2.2-2.9v-16.3Z"/>
        </g>
        <g>
          <path class="cls-4" d="M363.1,137.6c0,1.6-.4,2-1.4,2.6-1.7,1.3-6.2,2.4-10,2.4-11.6,0-19.7-9.6-19.7-24.3s7.6-24.5,19.7-24.5,8.4,1.4,9.5,2.1c.7.4.9.6.9,2.4,0,1.3,0,3.4,0,6.8s-.2,3.2-.9,3.2c-1,0-1.4-.8-2.5-4.2-1.7-5-4.2-8.2-8-8.2s-10.4,5.9-10.4,21.5,5.8,23.2,11.2,23.2,7-4.5,8.1-9.4c.8-3.6.9-4.9,1.9-4.9s1.3.1,1.3,2.3v9.1Z"/>
          <path class="cls-4" d="M371.3,96.4c0-1.4-.4-1.9-2.1-2.2-1.4-.3-1.8-.4-1.8-1s.3-.8,1.4-1.1c3.1-1,5.2-1.7,6.6-2.3,1.1-.5,1.5-.7,1.9-.7s.5.4.5,1.5v46.5c0,1.9.8,2,3.2,2.6.9.2,1.6.4,1.6,1.1s-.5,1-1.2,1-1.6-.3-6.8-.3-5.6.3-6.5.3-1.2-.2-1.2-1,.7-1,1.3-1.1c2.7-.4,3-1.1,3-3v-40.2Z"/>
          <path class="cls-4" d="M393.9,123.2c-1.4,0-2,.5-2,1.7,0,7.6,3.4,13.6,8.8,13.6s5.7-1.7,6.8-4.2c.6-1.3.8-2.3,1.4-2.3s.8.2.8,1-.4,2.4-1.1,3.7c-1.6,3.2-5.2,5.6-9.6,5.6-8.8,0-14.1-7.1-14.1-17s6.6-18.5,14.1-18.5,10.8,4.5,10.8,11.9,0,4.5-2.3,4.5h-13.6ZM392.1,119.2c0,1.4.2,1.8,3,1.8s2.7-.1,3.8-.3c2.3-.3,3.9-.9,4.3-1.5.6-.6.9-1.4.9-3.1,0-4.4-2.1-7.1-5.2-7.1s-6.8,4.9-6.8,10.1h0Z"/>
          <path class="cls-4" d="M431.6,113.5c0-3.5-1-4.6-3-4.6-3.6,0-5.3,2.7-6.4,6.4-.5,1.6-1.5,2.9-2.6,3.7-.9.7-2,1-3.1,1s-2.2-.5-2.2-2c0-4.4,6.6-11.2,16.2-11.2s4.8.4,6,1.3c1.2.9,1.7,2.4,1.7,4.4v22.3c0,1.9.7,2.7,2,2.7s2-.7,2.3-1.4c.4-.7.5-1.5,1.1-1.5s.6.4.6,1.3c0,1.6-2.2,6.2-7,6.2s-4.2-2.5-4.8-4c-.2-.6-.5-1-.9-1-.6,0-1.8,1.4-3.7,2.7-1.7,1.3-4.1,2.5-7.2,2.5s-6.2-2.4-6.2-6.8,2.1-6.3,8.7-10.4c2.7-1.6,4.5-2.7,5.7-3.6,2-1.2,2.7-1.9,2.7-3.6v-4.5ZM421.5,134.4c0,2.7,1.5,4.2,3.7,4.2s3-.9,4.5-2.2c1.4-1.3,2-2.3,2-4.2v-8.2c0-.8-.2-1-.5-1s-.8,0-1.8.8c-1.6,1-3.2,2.3-4.4,3.6-2.1,2.1-3.4,4.4-3.4,7h0Z"/>
          <path class="cls-4" d="M449.9,116c0-2.4-.8-3-2.8-3-.6,0-1-.2-1-.8s.5-1,1.6-1.3c1.6-.5,3.5-1.1,5.4-2.6,1-1,1.5-1.5,2.1-1.5s.6.4.6,1.1c0,1,0,2.2,0,3.7s0,1.7.3,1.7c.7,0,1.1-1.6,2.3-3.3,1.1-1.6,2.7-3.3,5.5-3.3s4.7,2.2,4.7,5.6-1.1,4.8-3.7,4.8-2.8-1.3-3-2.9c-.2-1.2-.3-2.4-1.2-2.4-1.4,0-2.4,1.4-3.1,3.1-.7,1.8-1.1,3.5-1.1,4.8v15.3c0,3.3.3,4.2,2.8,4.5,2,.4,2.8.5,2.8,1.2s-.5.9-1.9.9-2-.3-7-.3-5.1.3-5.9.3-1.6-.2-1.6-.9.7-.9,2-1.2c1.9-.2,2.3-.6,2.3-3.5v-20.1Z"/>
          <path class="cls-4" d="M491.2,101.4c0-3.4-.5-4.2-1.9-4.4-2.4-.4-3.4-.4-3.4-1.3s.5-1,1.8-1,3.4.3,7.7.3,5.8-.3,6.9-.3,1.5.3,1.5.9c0,1-1.2.9-3.1,1.3-2,.4-2.3,1-2.3,3.1v34.6c0,3.6,1.1,5,4.8,5s8-3.5,9.6-8.6c.7-2.4.9-3,1.6-3s.9.1.9,2.8,0,5.6,0,8.4c0,2.3-.3,2.4-1.1,2.4-3.6,0-5.4-.3-15.9-.3s-8.4.3-10.4.3-1.8-.3-1.8-1,.7-1.1,2.7-1.4c2-.2,2.7-1.1,2.7-3.3v-34.7Z"/>
          <path class="cls-4" d="M536,113.5c0-3.5-1-4.6-3-4.6-3.6,0-5.3,2.7-6.4,6.4-.5,1.6-1.5,2.9-2.6,3.7-.9.7-2,1-3.1,1s-2.2-.5-2.2-2c0-4.4,6.6-11.2,16.2-11.2s4.8.4,6,1.3c1.2.9,1.7,2.4,1.7,4.4v22.3c0,1.9.7,2.7,2,2.7s2-.7,2.3-1.4c.4-.7.5-1.5,1.1-1.5s.6.4.6,1.3c0,1.6-2.2,6.2-7,6.2s-4.2-2.5-4.8-4c-.2-.6-.5-1-.9-1-.6,0-1.8,1.4-3.7,2.7-1.7,1.3-4.1,2.5-7.2,2.5s-6.2-2.4-6.2-6.8,2.1-6.3,8.7-10.4c2.7-1.6,4.5-2.7,5.7-3.6,2-1.2,2.7-1.9,2.7-3.6v-4.5ZM525.8,134.4c0,2.7,1.5,4.2,3.7,4.2s3-.9,4.5-2.2c1.4-1.3,2-2.3,2-4.2v-8.2c0-.8-.2-1-.5-1s-.8,0-1.8.8c-1.6,1-3.2,2.3-4.4,3.6-2.1,2.1-3.4,4.4-3.4,7h0Z"/>
          <path class="cls-4" d="M553.6,96.4c0-1.4-.4-1.9-2.1-2.2-1.4-.3-1.8-.4-1.8-1s.3-.7,1.3-1.1c2.3-.7,4.8-1.5,6.9-2.4.9-.4,1.4-.7,1.8-.7s.5.3.5,1.3v30.5c0,1.9.2,2,.5,2s.9-.4,1.6-1.3c2.1-2.5,4.6-5.2,6.7-7.9.9-1.2,1-1.8,1-2.3,0-1-.4-1.6-2.7-1.9-.9,0-1.4-.4-1.4-1.1s.5-.9,1.7-.9,3.6.3,5.5.3,3.8-.3,5.6-.3,1.3.2,1.3.8-.5.9-1.7,1.2c-1.4.3-3,1.5-4.5,2.7-1.8,1.4-3.5,3-5.1,4.7-.9.9-1.1,1.3-1.1,1.7s.2,1,.8,1.9c2.1,3.4,5,8.9,8.2,14.8,2.3,3.6,2.8,4.1,3.8,4.3,1.3.3,1.9.4,1.9,1.1s-.4.9-1.3.9-3.1-.3-5.6-.3-4.4.3-5.3.3-1-.2-1.1-.7c0-.7.5-.9,1.2-1,.5-.2,1.1-.4,1.1-1,0-.4-.5-1.5-1.3-2.9-1.7-3.3-4.1-7.2-5.5-9.6-.9-1.5-1.3-2.2-1.6-2.2s-2.6,1.7-2.6,3.6v8.8c0,2.6,1.1,2.9,2.1,3,1,.2,2.1.3,2.1,1.2s-.5.8-1,.8c-1.3,0-4.2-.3-6.3-.3s-4.9.3-6.1.3-1.2-.4-1.2-1,.5-.9,1.8-1.1c2-.3,2-1,2-2.3v-40.9Z"/>
          <path class="cls-4" d="M590.9,123.2c-1.4,0-2,.5-2,1.7,0,7.6,3.4,13.6,8.8,13.6s5.7-1.7,6.8-4.2c.6-1.3.8-2.3,1.4-2.3s.8.2.8,1-.4,2.4-1.1,3.7c-1.6,3.2-5.2,5.6-9.6,5.6-8.8,0-14.1-7.1-14.1-17s6.6-18.5,14.1-18.5,10.8,4.5,10.8,11.9,0,4.5-2.3,4.5h-13.6ZM589.1,119.2c0,1.4.2,1.8,3,1.8s2.7-.1,3.8-.3c2.3-.3,3.9-.9,4.3-1.5.6-.6.9-1.4.9-3.1,0-4.4-2.1-7.1-5.2-7.1s-6.8,4.9-6.8,10.1h0Z"/>
        </g>
      </g>
    </g>
  </g>
</svg>